<svg xmlns="http://www.w3.org/2000/svg" xmlns:xlink="http://www.w3.org/1999/xlink" version="1.1" height="16" width="16" enable-background="new 0 0 16 16" xml:space="preserve" style=""><rect id="backgroundrect" width="100%" height="100%" x="0" y="0" fill="none" stroke="none"/>

<g class="currentLayer" style=""><title>Layer 1</title><path d="M15.8,13l-3.3-5.7L9.1,1.4c-0.5-0.9-1.6-0.9-2.1,0L3.6,7.1L0.2,13c-0.5,0.9,0,2,1.1,2H8h6.7C15.8,15,16.3,13.9,15.8,13z   M7.9,5.1h0.3H9l-0.3,5.1H8.2H7.9H7.4L7.1,5.1H7.9z M8,12.9c-0.6,0-1.1-0.5-1.1-1.1s0.5-1.1,1.1-1.1s1.1,0.5,1.1,1.1  S8.6,12.9,8,12.9z" id="svg_1" class="selected" fill="#b6b6b6" fill-opacity="1"/></g></svg>